<?xml version="1.0" standalone="no"?><!DOCTYPE svg PUBLIC "-//W3C//DTD SVG 1.1//EN" "http://www.w3.org/Graphics/SVG/1.1/DTD/svg11.dtd"><svg t="1576413747803" class="icon" viewBox="0 0 1024 1024" version="1.1" xmlns="http://www.w3.org/2000/svg" p-id="4202" xmlns:xlink="http://www.w3.org/1999/xlink" width="200" height="200"><defs><style type="text/css"></style></defs><path d="M905.216 444.416h-59.392V139.264h-573.44c-2.048 0-108.544 14.336-88.064 221.184l-59.392 6.144c-10.24-100.352 6.144-178.176 47.104-231.424 40.96-49.152 90.112-55.296 96.256-55.296h634.88v364.544z" p-id="4203"></path><path d="M151.552 415.744c-8.192 0-16.384-4.096-20.48-12.288L55.296 286.72c-8.192-12.288-4.096-26.624 8.192-34.816 12.288-8.192 26.624-4.096 34.816 8.192l55.296 86.016 55.296-79.872c8.192-10.24 22.528-14.336 34.816-6.144 10.24 8.192 14.336 22.528 6.144 34.816l-77.824 110.592c-4.096 6.144-12.288 10.24-20.48 10.24zM165.888 960.512H137.216V595.968h59.392V901.12h573.44c2.048 0 108.544-14.336 88.064-221.184l59.392-6.144c10.24 102.4-6.144 180.224-49.152 231.424-40.96 49.152-90.112 55.296-96.256 55.296H165.888z" p-id="4204"></path><path d="M966.656 798.72c-8.192 0-16.384-4.096-20.48-12.288l-55.296-88.064-57.344 81.92c-8.192 12.288-22.528 14.336-34.816 6.144-10.24-8.192-14.336-22.528-6.144-34.816l77.824-112.64c4.096-6.144 12.288-10.24 20.48-10.24s16.384 4.096 20.48 12.288l75.776 118.784c8.192 12.288 4.096 26.624-8.192 34.816-4.096 2.048-8.192 4.096-12.288 4.096zM313.344 598.016h415.744v49.152H313.344zM315.392 690.176h415.744v49.152H315.392zM315.392 780.288h415.744v49.152H315.392zM677.888 223.232c-20.48 0-40.96 12.288-47.104 32.768-8.192 20.48-2.048 43.008 14.336 57.344l-47.104 69.632c-18.432-8.192-40.96-4.096-55.296 8.192l-55.296-49.152c8.192-24.576-4.096-51.2-28.672-63.488-24.576-10.24-53.248-2.048-65.536 20.48-12.288 22.528-8.192 51.2 14.336 67.584l-32.768 55.296c-24.576-8.192-51.2 6.144-61.44 28.672-10.24 24.576 0 53.248 22.528 65.536 22.528 12.288 51.2 6.144 67.584-16.384 14.336-22.528 12.288-51.2-8.192-67.584l32.768-57.344c18.432 4.096 36.864-2.048 49.152-16.384l55.296 47.104c-10.24 22.528-2.048 51.2 20.48 63.488 22.528 14.336 49.152 8.192 65.536-10.24 16.384-20.48 16.384-47.104 0-67.584l49.152-71.68c18.432 6.144 40.96 0 53.248-14.336 14.336-14.336 16.384-36.864 8.192-55.296-12.288-14.336-30.72-26.624-51.2-26.624z m0 0" p-id="4205"></path></svg>