<?xml version="1.0" standalone="no"?><!DOCTYPE svg PUBLIC "-//W3C//DTD SVG 1.1//EN" "http://www.w3.org/Graphics/SVG/1.1/DTD/svg11.dtd"><svg t="1576414812382" class="icon" viewBox="0 0 1024 1024" version="1.1" xmlns="http://www.w3.org/2000/svg" p-id="5622" xmlns:xlink="http://www.w3.org/1999/xlink" width="200" height="200"><defs><style type="text/css"></style></defs><path d="M818.1 370.5c-14.8 0-29 2.2-42.5 6.3L586.5 203.5c5.5-12.1 8.6-25.5 8.6-39.6 0-52.8-42.8-95.5-95.5-95.5-52.8 0-95.5 42.8-95.5 95.5 0 15.9 3.9 30.9 10.8 44.1L204.5 418.3c-10.1-3.6-20.9-5.6-32.2-5.6-52.7 0-95.5 42.8-95.5 95.5s42.8 95.5 95.5 95.5c8 0 15.7-1 23.1-2.8l215.7 215.7c-4.5 11.1-7 23.3-7 36 0 52.7 42.8 95.5 95.5 95.5s95.5-42.8 95.5-95.5c0-10.8-1.8-21.3-5.1-31l181.4-166.1c14.7 5 30.5 7.7 46.8 7.7 80.8 0 146.4-65.5 146.4-146.4S899 370.5 818.1 370.5zM555.6 775.3c-15.7-11.4-35.1-18.2-56-18.2-19.4 0-37.4 5.8-52.5 15.7L244.8 570.5c14.4-16.7 23.1-38.5 23.1-62.3 0-20.8-6.7-40-17.9-55.7L454.5 248a95.03 95.03 0 0 0 45 11.3c17.7 0 34.3-4.8 48.5-13.2L723.7 405c-31.8 26.8-51.9 67-51.9 111.8 0 43.4 18.9 82.4 48.9 109.2L555.6 775.3z m262.6-163.7c-52.3 0-94.7-42.4-94.7-94.7s42.4-94.7 94.7-94.7 94.7 42.4 94.7 94.7c0 52.3-42.4 94.7-94.7 94.7z m0-149.9c-30.5 0-55.2 24.7-55.2 55.2 0 30.5 24.7 55.2 55.2 55.2 30.5 0 55.2-24.7 55.2-55.2-0.1-30.6-24.8-55.2-55.2-55.2z" fill="#2c2c2c" p-id="5623"></path></svg>