<?xml version="1.0" standalone="no"?><!DOCTYPE svg PUBLIC "-//W3C//DTD SVG 1.1//EN" "http://www.w3.org/Graphics/SVG/1.1/DTD/svg11.dtd"><svg t="1576414789037" class="icon" viewBox="0 0 1116 1024" version="1.1" xmlns="http://www.w3.org/2000/svg" p-id="4897" xmlns:xlink="http://www.w3.org/1999/xlink" width="217.96875" height="200"><defs><style type="text/css"></style></defs><path d="M243.712 340.992v491.264c0 20.992 15.616 36.608 36.608 36.608h629.504c20.992 0 36.608-15.616 36.608-36.608V340.992c0-20.992-15.616-36.608-36.608-36.608H280.32c-20.992 0.256-36.608 18.432-36.608 36.608z m73.216 36.608h556.544v418.048H316.928V377.6z m-276.992 250.88c20.992 0 36.608-15.616 36.608-36.608V137.472h592.896c20.992 0 36.608-15.616 36.608-36.608 0-20.992-15.616-36.608-36.608-36.608H42.496c-20.992 0-36.608 15.616-36.608 36.608v491.264c-2.304 17.92 13.312 36.352 34.048 36.352zM160 184.576c-20.992 0-36.608 15.616-36.608 36.608v491.264c0 20.992 15.616 36.608 36.608 36.608 20.992 0 36.608-15.616 36.608-36.608V257.536h592.896c20.992 0 36.608-15.616 36.608-36.608 0-20.992-15.616-36.608-36.608-36.608H160z m0 0" fill="#515151" p-id="4898"></path><path d="M602.368 750.592c-10.24 0-20.224-3.84-27.648-10.752l-212.992-198.656c-15.872-14.848-16.384-39.424-1.28-55.04 15.36-15.616 40.704-16.128 56.576-1.28l182.016 169.728 329.984-390.4c14.08-16.64 39.168-18.944 56.32-5.376 17.152 13.568 19.456 38.144 5.376 54.784L633.088 736.512c-7.168 8.448-17.408 13.568-28.416 14.08h-2.304z m0 0" fill="#515151" p-id="4899"></path></svg>