<?xml version="1.0" standalone="no"?><!DOCTYPE svg PUBLIC "-//W3C//DTD SVG 1.1//EN" "http://www.w3.org/Graphics/SVG/1.1/DTD/svg11.dtd"><svg t="1576413118330" class="icon" viewBox="0 0 1024 1024" version="1.1" xmlns="http://www.w3.org/2000/svg" p-id="3460" xmlns:xlink="http://www.w3.org/1999/xlink" width="200" height="200"><defs><style type="text/css"></style></defs><path d="M869.826 581.09c-132.16-135-118.75-186.363-99.318-240.226C790.053 287 742.78 49.84 567.667 142c-175.114 92.273-122.955 215.682-247.841 210.114-124.886-5.455-278.41 61.59-186.818 308.863 35.795 96.591 103.863 190.341 209.204 203.864 105.341 13.523 278.296-20.91 383.637 31.477 105.227 52.387 276.022-180.227 143.977-315.227z m-172.5 253.07c-88.864-41.365-234.318-17.046-323.636-26.933-89.319-9.886-158.182-72.159-187.5-150.227-75.114-199.545 70.113-255.91 176.136-252.727 105.909 3.182 61.023-120.341 210.568-196.818 149.546-76.478 159.091 121.59 142.046 165.454-19.773 50.682-18.069 98.75 97.613 211.591 110.91 108.182-26.25 291.136-115.227 249.66z m0 0" fill="#6E72DF" p-id="3461"></path><path d="M253.121 535.295c-48.068 41.364-6.818 139.432 55.114 159.546 62.045 20.114 123.295-2.046 171.477-43.977 48.068-42.046 41.705-186.591-38.295-148.978-79.887 37.387-90.227-51.022-188.296 33.41z m0 0" fill="#FF7272" p-id="3462"></path><path d="M601.985 257.34c-57.386 14.774-111.477 111.137-88.295 154.092 23.181 42.727 73.181 118.863 56.818 173.977-16.364 55-4.205 121.818 50.568 141.591 54.773 19.773 171.818 13.182 173.295-44.545 1.478-57.728-138.181-119.205-142.159-213.523-3.863-94.318 43.068-235.682-50.227-211.591z m0 0" fill="#F6C244" p-id="3463"></path></svg>